<svg xmlns="http://www.w3.org/2000/svg" xml:space="preserve" width="2048" height="2048" style="shape-rendering:geometricPrecision;text-rendering:geometricPrecision;image-rendering:optimizeQuality;fill-rule:evenodd;clip-rule:evenodd"><defs><style>.fil0{fill:#263238}</style></defs><g id="Layer_x0020_1"><g id="_360337552"><path class="fil0" d="M794 416h459c42 0 81 17 109 45s45 66 45 109v85H640v-85c0-42 17-81 45-109s66-45 109-45z"/><path d="M1408 640h303c23 0 43 9 58 24s24 35 24 58v828c0 23-9 43-24 58s-35 24-58 24H339c-23 0-43-9-58-24s-24-35-24-58V722c0-23 9-43 24-58s35-24 58-24h1070z" style="fill:#37474f"/><path style="fill:#122129" d="M1792 880v448H256V880z"/><path class="fil0" d="M1024 704c115 0 219 47 294 122s122 179 122 294-47 219-122 294-179 122-294 122-219-47-294-122-122-179-122-294 47-219 122-294 179-122 294-122z"/><path d="M1273 871c-64-64-152-103-249-103s-185 39-249 103-103 152-103 249 39 185 103 249 152 103 249 103 185-39 249-103 103-152 103-249-39-185-103-249z" style="fill:#90a4ae"/><path d="M1134 936c30 35-112 9-198 81-87 72-86 216-115 181-30-35-37-187 50-259s234-38 264-3z" style="fill:#eceff1"/><path d="M414 610h153c9 0 16 7 16 16v16H398v-16c0-9 7-16 16-16z" style="fill:#212121"/><circle cx="1648" cy="752" r="38" style="fill:#ff9800"/><path d="M794 416h459c42 0 81 17 109 45 5 5 10 11 15 17H671c5-6 9-12 15-17 28-28 66-45 109-45z" style="fill:#1f2a30"/></g><path style="fill:none" d="M0 0h2048v2048H0z"/></g></svg>